<svg width="256" height="256" viewBox="0 0 256 256" xmlns="http://www.w3.org/2000/svg" role="img" aria-label="Allure Station">
  <defs>
    <linearGradient id="bg" x1="0" y1="0" x2="1" y2="1">
      <stop offset="0" stop-color="#1ED6B2"/>
      <stop offset="0.55" stop-color="#12B58F"/>
      <stop offset="1" stop-color="#0A916F"/>
    </linearGradient>
    <radialGradient id="glow" cx="0.27" cy="0.2" r="0.95">
      <stop offset="0" stop-color="#86F5DC" stop-opacity="0.6"/>
      <stop offset="0.55" stop-color="#86F5DC" stop-opacity="0"/>
    </radialGradient>
    <linearGradient id="bar" x1="0" y1="0" x2="0" y2="1">
      <stop offset="0" stop-color="#FFFFFF"/>
      <stop offset="1" stop-color="#E7FBF5"/>
    </linearGradient>
  </defs>
  <rect x="8" y="8" width="240" height="240" rx="58" fill="url(#bg)"/>
  <rect x="8" y="8" width="240" height="240" rx="58" fill="url(#glow)"/>
  <rect x="8.75" y="8.75" width="238.5" height="238.5" rx="57.25" fill="none" stroke="#FFFFFF" stroke-opacity="0.14" stroke-width="1.5"/>
  <g fill="url(#bar)">
    <rect x="66"  y="150" width="26" height="30" rx="13"/>
    <rect x="101" y="120" width="26" height="60" rx="13"/>
    <rect x="136" y="92"  width="26" height="88" rx="13"/>
  </g>
  <g fill="none" stroke="#FFFFFF" stroke-width="9" stroke-linecap="round">
    <path d="M125 70 A 24 24 0 0 1 149 46"/>
    <path d="M111 70 A 38 38 0 0 1 149 32"/>
  </g>
  <circle cx="149" cy="70" r="12" fill="url(#bar)"/>
</svg>
