<svg width="631" height="132" viewBox="0 0 631 132" xmlns="http://www.w3.org/2000/svg" role="img" aria-label="Allure Station"><svg x="26" y="18.0" width="96" height="96" viewBox="0 0 256 256">
  <defs>
    <linearGradient id="bg" x1="0" y1="0" x2="1" y2="1">
      <stop offset="0" stop-color="#1ED6B2"/>
      <stop offset="0.55" stop-color="#12B58F"/>
      <stop offset="1" stop-color="#0A916F"/>
    </linearGradient>
    <radialGradient id="glow" cx="0.27" cy="0.2" r="0.95">
      <stop offset="0" stop-color="#86F5DC" stop-opacity="0.6"/>
      <stop offset="0.55" stop-color="#86F5DC" stop-opacity="0"/>
    </radialGradient>
    <linearGradient id="bar" x1="0" y1="0" x2="0" y2="1">
      <stop offset="0" stop-color="#FFFFFF"/>
      <stop offset="1" stop-color="#E7FBF5"/>
    </linearGradient>
  </defs>
  <rect x="8" y="8" width="240" height="240" rx="58" fill="url(#bg)"/>
  <rect x="8" y="8" width="240" height="240" rx="58" fill="url(#glow)"/>
  <rect x="8.75" y="8.75" width="238.5" height="238.5" rx="57.25" fill="none" stroke="#FFFFFF" stroke-opacity="0.14" stroke-width="1.5"/>
  <g fill="url(#bar)">
    <rect x="66"  y="150" width="26" height="30" rx="13"/>
    <rect x="101" y="120" width="26" height="60" rx="13"/>
    <rect x="136" y="92"  width="26" height="88" rx="13"/>
  </g>
  <g fill="none" stroke="#FFFFFF" stroke-width="9" stroke-linecap="round">
    <path d="M125 70 A 24 24 0 0 1 149 46"/>
    <path d="M111 70 A 38 38 0 0 1 149 32"/>
  </g>
  <circle cx="149" cy="70" r="12" fill="url(#bar)"/>
</svg><g fill="#0F1B2D"><g transform="translate(152.00 86.00) scale(0.06400 -0.06400)"><path d="M13 0 254 730H519L769 0H599L397 617L449 596H320L374 617L177 0ZM196 181 246 317H532L583 181Z"/></g><g transform="translate(201.65 86.00) scale(0.06400 -0.06400)"><path d="M80 0V730H241V0ZM15 612V730H241V612Z"/></g><g transform="translate(221.41 86.00) scale(0.06400 -0.06400)"><path d="M80 0V730H241V0ZM15 612V730H241V612Z"/></g><g transform="translate(241.17 86.00) scale(0.06400 -0.06400)"><path d="M258 -17Q163 -17 112.0 44.5Q61 106 61 230V548H221V222Q221 178 246.0 152.0Q271 126 313 126Q356 126 383.0 153.0Q410 180 410 226V548H570V0H443V231H454Q454 148 432.5 92.5Q411 37 369.0 10.0Q327 -17 265 -17Z"/></g><g transform="translate(282.05 86.00) scale(0.06400 -0.06400)"><path d="M73 0V548H200V313H197Q197 429 246.5 492.0Q296 555 390 555H411V417H371Q305 417 269.0 381.5Q233 346 233 279V0Z"/></g><g transform="translate(308.59 86.00) scale(0.06400 -0.06400)"><path d="M324 -19Q254 -19 200.5 5.0Q147 29 111.5 69.5Q76 110 57.5 160.5Q39 211 39 264V284Q39 339 57.5 389.5Q76 440 111.0 480.0Q146 520 198.5 543.5Q251 567 318 567Q406 567 466.5 527.5Q527 488 559.0 424.5Q591 361 591 286V232H106V323H494L442 281Q442 330 428.0 365.0Q414 400 386.5 418.5Q359 437 318 437Q276 437 247.0 418.0Q218 399 203.0 362.5Q188 326 188 273Q188 224 202.0 187.5Q216 151 246.0 131.0Q276 111 324 111Q368 111 396.0 128.0Q424 145 434 170H581Q569 115 534.0 72.0Q499 29 446.0 5.0Q393 -19 324 -19Z"/></g></g><g fill="#0F9E78"><g transform="translate(367.33 86.00) scale(0.06400 -0.06400)"><path d="M341 -18Q247 -18 181.5 12.5Q116 43 82.0 96.5Q48 150 48 218H166Q166 187 183.0 157.0Q200 127 238.0 107.5Q276 88 341 88Q400 88 438.5 105.0Q477 122 495.5 150.0Q514 178 514 212Q514 254 478.0 280.5Q442 307 370 313L297 320Q196 328 136.0 382.5Q76 437 76 526Q76 594 108.5 644.0Q141 694 200.0 722.5Q259 751 337 751Q417 751 476.0 722.5Q535 694 567.5 642.5Q600 591 600 520H482Q482 552 466.5 580.5Q451 609 419.0 627.0Q387 645 337 645Q289 645 257.5 628.0Q226 611 210.0 584.0Q194 557 194 526Q194 489 222.0 460.5Q250 432 308 427L380 421Q457 415 513.5 388.5Q570 362 601.5 318.0Q633 274 633 212Q633 144 596.5 92.0Q560 40 494.5 11.0Q429 -18 341 -18Z"/></g><g transform="translate(410.58 86.00) scale(0.06400 -0.06400)"><path d="M307 -6Q240 -6 194.0 12.0Q148 30 124.5 74.0Q101 118 101 193V696H212V183Q212 141 234.5 118.5Q257 96 298 96H388V-6ZM12 452V539H388V452Z"/></g><g transform="translate(437.63 86.00) scale(0.06400 -0.06400)"><path d="M411 0V161H392V343Q392 393 366.0 419.0Q340 445 289 445Q261 445 227.0 444.0Q193 443 160.5 441.5Q128 440 103 438V539Q125 541 151.5 542.5Q178 544 206.5 545.0Q235 546 261 546Q343 546 397.0 525.0Q451 504 477.5 458.5Q504 413 504 337V0ZM236 -14Q177 -14 133.0 6.5Q89 27 65.0 66.5Q41 106 41 161Q41 219 68.5 257.0Q96 295 147.0 314.0Q198 333 269 333H404V256H266Q213 256 185.0 230.5Q157 205 157 164Q157 123 185.0 98.5Q213 74 266 74Q297 74 325.0 85.5Q353 97 371.5 124.0Q390 151 392 200L422 161Q417 104 394.5 65.5Q372 27 332.5 6.5Q293 -14 236 -14Z"/></g><g transform="translate(474.42 86.00) scale(0.06400 -0.06400)"><path d="M307 -6Q240 -6 194.0 12.0Q148 30 124.5 74.0Q101 118 101 193V696H212V183Q212 141 234.5 118.5Q257 96 298 96H388V-6ZM12 452V539H388V452Z"/></g><g transform="translate(501.47 86.00) scale(0.06400 -0.06400)"><path d="M112 0V539H229V0ZM33 449V539H229V449ZM150 614Q114 614 96.5 633.0Q79 652 79 682Q79 711 96.5 730.5Q114 750 150 750Q187 750 204.5 730.5Q222 711 222 682Q222 652 204.5 633.0Q187 614 150 614Z"/></g><g transform="translate(521.36 86.00) scale(0.06400 -0.06400)"><path d="M339 -18Q268 -18 214.0 5.5Q160 29 123.0 68.0Q86 107 67.0 156.5Q48 206 48 259V279Q48 332 67.5 382.0Q87 432 124.5 471.5Q162 511 216.0 534.0Q270 557 339 557Q408 557 461.5 534.0Q515 511 553.0 471.5Q591 432 610.5 382.0Q630 332 630 279V259Q630 206 611.0 156.5Q592 107 555.0 68.0Q518 29 464.0 5.5Q410 -18 339 -18ZM339 84Q394 84 433.0 108.5Q472 133 492.5 175.0Q513 217 513 269Q513 322 492.0 364.0Q471 406 432.0 430.5Q393 455 339 455Q285 455 246.0 430.5Q207 406 186.0 364.0Q165 322 165 269Q165 217 185.5 175.0Q206 133 245.0 108.5Q284 84 339 84Z"/></g><g transform="translate(564.35 86.00) scale(0.06400 -0.06400)"><path d="M86 0V539H179V308H168Q168 388 189.5 443.0Q211 498 255.0 526.5Q299 555 364 555H369Q469 555 518.0 492.0Q567 429 567 308V0H450V324Q450 380 418.0 414.5Q386 449 330 449Q273 449 238.0 413.5Q203 378 203 319V0Z"/></g></g></svg>